<?xml version="1.0" standalone="no"?>
<!DOCTYPE svg PUBLIC "-//W3C//DTD SVG 20010904//EN"
 "http://www.w3.org/TR/2001/REC-SVG-20010904/DTD/svg10.dtd">
<svg version="1.0" xmlns="http://www.w3.org/2000/svg"
 width="314.000000pt" height="160.000000pt" viewBox="0 0 314.000000 160.000000"
 preserveAspectRatio="xMidYMid meet">

<g transform="translate(0.000000,160.000000) scale(0.100000,-0.100000)"
fill="#000000" stroke="none">
<path d="M0 800 l0 -800 1570 0 1570 0 0 800 0 800 -1570 0 -1570 0 0 -800z
m989 509 c71 -15 101 -41 101 -88 0 -24 -8 -49 -21 -66 -23 -29 -21 -29 -125
-4 -55 13 -94 8 -119 -17 -21 -21 -14 -27 66 -53 114 -37 156 -102 130 -201
-17 -65 -60 -119 -122 -154 -50 -29 -61 -31 -154 -31 -80 0 -108 4 -140 20
-37 19 -40 23 -43 67 -3 40 1 52 23 74 20 19 33 25 53 21 156 -30 157 -31 187
-16 38 18 38 31 -4 49 -104 47 -138 68 -158 99 -44 65 -23 151 53 228 74 75
158 97 273 72z m282 -26 c-10 -21 -22 -48 -25 -60 -7 -21 -4 -23 28 -23 39 0
41 -2 26 -31 -9 -15 -22 -19 -70 -19 -34 0 -60 4 -60 10 0 6 14 44 31 85 29
69 34 75 61 75 l28 0 -19 -37z m215 -9 c-3 -26 -6 -64 -6 -85 0 -37 -2 -39
-31 -39 -24 0 -30 4 -25 15 8 21 -42 20 -65 -1 -9 -8 -27 -14 -39 -12 -21 3
-16 11 44 86 58 71 71 82 98 82 l31 0 -7 -46z m138 1 l11 -39 17 42 c14 35 21
42 43 42 18 0 25 -4 22 -12 -51 -123 -71 -158 -93 -158 -19 0 -25 8 -35 43
l-12 42 -18 -42 c-15 -35 -23 -43 -44 -43 -25 0 -25 1 -12 33 59 138 59 138
85 135 20 -2 28 -11 36 -43z m172 30 c-3 -8 -9 -23 -13 -32 -4 -11 7 -6 32 15
29 23 49 32 75 31 l35 0 -24 -17 c-62 -43 -63 -44 -54 -97 l8 -49 65 82 c53
67 70 82 93 82 27 0 27 0 27 -69 0 -38 -3 -76 -6 -85 -8 -21 -54 -21 -54 -1 0
10 -10 15 -29 15 -16 0 -31 -6 -35 -15 -4 -11 -21 -15 -66 -15 l-60 0 0 35 c0
32 -2 34 -19 23 -11 -7 -24 -22 -30 -35 -7 -15 -19 -23 -36 -23 -14 0 -25 2
-25 4 0 2 12 30 26 62 14 33 30 69 35 82 6 15 17 22 35 22 19 0 25 -4 20 -15z
m-172 -241 c0 -11 -4 -33 -8 -51 l-7 -32 33 11 c43 13 84 -3 100 -38 10 -21 8
-44 -6 -117 -22 -111 -36 -137 -75 -137 -48 0 -53 17 -31 109 24 99 24 91 2
91 -30 0 -49 -30 -67 -110 -9 -41 -22 -78 -28 -82 -22 -14 -67 -9 -74 9 -6 15
48 281 69 345 15 42 94 43 92 2z m-205 12 c7 -9 9 -29 5 -55 -7 -41 -6 -41 25
-41 27 0 31 -3 31 -28 0 -35 -16 -52 -51 -52 -33 0 -37 -6 -45 -63 l-7 -46 34
-3 c40 -4 49 -27 25 -63 -14 -21 -24 -25 -66 -25 -63 0 -90 23 -90 78 0 59 49
275 67 294 19 21 56 23 72 4z m-189 -99 c48 -24 54 -56 29 -163 -14 -60 -27
-98 -38 -103 -9 -4 -52 -9 -96 -9 -68 -1 -82 2 -102 20 -13 12 -23 30 -23 40
0 28 37 95 56 102 15 6 15 8 -1 26 -18 20 -18 21 2 48 34 45 121 65 173 39z
m776 -18 c93 -87 0 -259 -141 -259 -80 0 -130 70 -106 150 34 114 175 176 247
109z m244 25 c39 -8 58 -41 41 -73 -10 -18 -18 -20 -74 -16 l-62 5 39 -15 c53
-20 76 -43 76 -74 1 -25 1 -25 15 6 7 17 23 36 34 43 20 10 20 12 5 35 -15 23
-14 26 9 49 56 56 160 58 200 4 20 -27 20 -28 2 -115 -26 -130 -26 -130 -134
-131 -86 -1 -91 0 -111 25 -11 14 -20 33 -20 42 -1 10 -6 7 -15 -10 -19 -35
-72 -59 -132 -59 -85 0 -122 34 -86 79 17 21 22 22 62 11 27 -7 47 -8 53 -2 6
6 -1 12 -19 16 -68 17 -92 79 -51 131 36 47 94 63 168 49z m-494 -356 c-3 -13
-6 -26 -6 -30 0 -3 -8 -8 -17 -10 -15 -3 -14 -5 5 -10 17 -5 22 -2 22 13 0 10
7 19 15 19 11 0 15 -12 15 -51 l0 -50 -47 3 c-48 3 -48 3 -54 43 l-6 40 -2
-42 c-2 -60 -21 -54 -21 7 l0 50 41 0 c34 0 39 3 30 13 -12 15 -5 27 17 27 10
0 13 -7 8 -22z m478 0 c9 -12 16 -33 16 -46 0 -13 4 -20 10 -17 6 3 10 15 10
26 0 16 7 19 40 19 36 0 55 -13 30 -22 -6 -2 -1 -11 10 -20 19 -17 20 -17 20
12 0 28 2 30 40 30 22 0 40 -4 40 -10 0 -5 -4 -10 -10 -10 -5 0 -10 -18 -10
-41 0 -50 -22 -49 -31 2 l-6 34 -2 -39 c-1 -29 -4 -37 -16 -33 -8 4 -17 2 -20
-3 -4 -6 -19 -10 -35 -10 -16 0 -32 -4 -35 -10 -9 -15 -35 -12 -35 4 0 8 4 16
10 18 6 2 6 8 0 18 -8 13 -10 12 -10 -2 0 -10 -4 -18 -10 -18 -5 0 -10 5 -10
10 0 6 -7 6 -19 -2 -15 -9 -24 -8 -45 5 -21 14 -26 25 -26 57 0 22 7 45 16 54
22 23 60 20 78 -6z m-1549 -22 c14 -14 28 -20 36 -15 7 4 21 3 30 -2 25 -13
28 -12 22 11 -3 11 -1 20 3 21 48 6 82 5 96 -2 11 -6 18 -5 21 4 3 9 9 9 23 1
22 -13 31 -69 15 -88 -14 -16 -147 -21 -156 -6 -4 6 -13 5 -25 -2 -15 -10 -23
-9 -41 7 -18 16 -21 17 -16 4 8 -23 -12 -39 -50 -39 -52 0 -74 69 -33 110 26
26 46 25 75 -4z m388 15 c4 -1 7 -11 8 -23 0 -23 0 -23 9 -2 17 44 80 42 80
-2 0 -14 4 -23 9 -20 5 3 7 15 4 26 -3 11 -1 20 3 21 49 6 82 5 97 -2 11 -6
17 -6 17 1 0 15 26 12 40 -5 10 -12 15 -13 21 -4 9 16 76 20 87 6 17 -22 23
-68 11 -83 -14 -18 -96 -19 -102 -1 -3 9 -7 9 -18 1 -8 -6 -45 -12 -82 -12
-53 -1 -69 2 -74 14 -5 15 -7 15 -15 0 -11 -19 -64 -22 -72 -3 -5 10 -7 10
-12 0 -8 -17 -89 -17 -103 0 -14 17 -8 77 9 87 10 6 44 7 83 1z m577 -57 c0
-21 -23 -54 -38 -54 -4 0 -14 4 -22 10 -9 5 -19 5 -26 -1 -16 -13 -41 -2 -47
21 -8 33 15 65 48 65 25 0 32 -5 41 -34 7 -21 14 -30 18 -22 4 7 1 22 -8 35
-8 13 -12 26 -9 30 11 11 43 -26 43 -50z m260 36 c0 -5 -8 -10 -17 -10 -15 0
-16 -2 -3 -10 23 -15 30 -12 30 10 0 17 7 20 40 20 22 0 40 -4 40 -10 0 -5 -4
-10 -10 -10 -5 0 -10 -17 -10 -38 0 -36 -2 -39 -30 -39 -16 0 -30 5 -30 10 0
5 -6 5 -13 -1 -14 -12 -81 -11 -93 0 -3 4 -3 25 1 47 7 41 7 41 51 41 24 0 44
-4 44 -10z m220 0 c0 -5 -6 -10 -12 -11 -10 0 -10 -2 0 -6 17 -7 15 -19 -10
-48 -25 -28 -40 -31 -61 -11 -12 12 -12 22 -3 50 10 33 14 36 48 36 21 0 38
-4 38 -10z m420 0 c0 -5 -6 -10 -12 -10 -10 0 -9 -3 1 -9 11 -7 10 -13 -5 -35
-25 -34 -52 -42 -72 -22 -14 13 -14 20 -4 36 6 11 12 27 12 35 0 11 11 15 40
15 22 0 40 -4 40 -10z m-1910 -245 c17 -20 9 -48 -17 -60 -12 -5 -23 -18 -25
-28 -2 -10 -7 -19 -13 -20 -11 -2 -20 86 -11 109 7 18 50 18 66 -1z m91 -1 c9
-11 10 -20 2 -32 -7 -12 -7 -26 0 -45 5 -15 7 -30 4 -34 -10 -9 -27 8 -27 28
0 10 -7 19 -15 19 -9 0 -15 -9 -15 -25 0 -14 -4 -25 -10 -25 -6 0 -10 28 -10
65 0 65 0 65 29 65 16 0 34 -7 42 -16z m39 -49 c0 -37 -4 -65 -10 -65 -6 0
-10 28 -10 65 0 37 4 65 10 65 6 0 10 -28 10 -65z m100 49 c0 -8 -5 -12 -10
-9 -6 3 -19 3 -30 0 -15 -5 -20 -15 -20 -41 0 -31 2 -34 31 -34 20 0 29 -4 27
-12 -7 -21 -46 -20 -67 1 -27 27 -27 65 -1 91 24 24 70 27 70 4z m78 4 c-3 -7
-13 -13 -23 -13 -10 0 -20 -6 -22 -12 -3 -8 5 -13 21 -13 14 0 26 -4 26 -10 0
-5 -11 -10 -25 -10 -16 0 -25 -6 -25 -15 0 -9 9 -15 25 -15 16 0 25 -6 25 -15
0 -10 -11 -15 -35 -15 l-35 0 0 65 0 65 36 0 c24 0 34 -4 32 -12z m112 -4 c0
-11 -6 -13 -19 -9 -30 9 -34 -11 -6 -29 28 -18 32 -47 10 -66 -17 -15 -47 -10
-53 9 -3 10 1 12 17 8 32 -8 37 14 8 35 -29 21 -34 37 -15 56 18 18 58 15 58
-4z m330 6 c0 -5 -9 -10 -20 -10 -11 0 -20 -7 -20 -15 0 -8 9 -15 20 -15 11 0
20 -4 20 -10 0 -5 -9 -10 -20 -10 -29 0 -25 -27 5 -32 23 -5 24 -2 27 46 3 45
6 51 26 54 37 5 49 -13 49 -73 0 -57 -12 -73 -23 -30 -8 31 -22 32 -26 3 -3
-20 -9 -23 -53 -23 l-50 0 -5 55 c-3 30 -9 55 -15 55 -5 0 -12 -25 -15 -55 -6
-70 -24 -71 -28 -2 -3 50 -4 52 -33 52 -29 0 -29 -1 -29 -55 0 -70 -18 -72
-22 -3 l-3 52 -37 4 c-29 3 -38 0 -38 -12 0 -9 9 -16 20 -16 11 0 20 -4 20
-10 0 -5 -9 -10 -20 -10 -28 0 -25 -28 3 -32 33 -5 22 -23 -15 -23 -32 0 -33
1 -36 49 -5 79 -12 76 163 76 97 0 155 -4 155 -10z m203 -5 c-2 -5 -9 -10 -15
-10 -9 0 -14 -19 -16 -52 -4 -70 -22 -68 -22 3 0 34 -4 53 -10 49 -14 -8 -32
4 -24 16 8 13 90 7 87 -6z m93 -10 c38 -57 -27 -134 -76 -90 -12 10 -20 31
-20 48 0 63 64 90 96 42z m154 0 c0 -18 5 -25 20 -25 15 0 20 7 20 26 0 16 5
24 13 22 8 -3 12 -25 12 -63 0 -38 -4 -60 -12 -63 -9 -2 -13 7 -13 27 0 24 -4
31 -19 31 -14 0 -21 -8 -23 -25 -6 -46 -23 -31 -28 25 -3 30 -9 55 -15 55 -5
0 -12 -25 -15 -55 -3 -30 -9 -55 -15 -55 -5 0 -12 25 -15 55 -3 30 -9 54 -15
52 -5 -2 -11 1 -13 7 -2 7 18 11 57 11 58 0 61 -1 61 -25z m148 13 c-3 -7 -13
-13 -23 -13 -10 0 -20 -6 -22 -12 -3 -8 5 -13 21 -13 14 0 26 -4 26 -10 0 -5
-11 -10 -25 -10 -16 0 -25 -6 -25 -15 0 -9 9 -15 25 -15 16 0 25 -6 25 -15 0
-10 -11 -15 -35 -15 l-35 0 0 65 0 65 36 0 c24 0 34 -4 32 -12z m90 -25 l22
-38 0 38 c0 61 24 41 29 -24 l4 -54 17 55 c10 30 23 55 30 55 12 0 47 -81 49
-112 1 -21 -17 -15 -24 7 -8 26 -41 26 -48 0 -8 -30 -48 -20 -74 19 l-22 32
-3 -33 c-5 -56 -23 -36 -26 30 -4 74 12 83 46 25z m252 -30 c0 -35 -4 -63 -10
-63 -5 0 -10 24 -10 53 0 46 -3 53 -20 53 -17 0 -20 -7 -20 -53 0 -69 -18 -69
-22 0 -2 32 -8 52 -15 53 -23 2 -24 4 -18 14 4 6 31 10 61 9 l54 -2 0 -64z
m109 35 c20 -36 5 -79 -31 -92 -36 -13 -68 15 -68 57 0 65 69 89 99 35z m63
-5 l23 -38 3 38 c5 64 23 42 20 -25 -2 -35 -7 -63 -13 -62 -5 1 -20 19 -32 40
l-23 39 0 -42 c0 -24 -4 -43 -10 -43 -6 0 -10 28 -10 65 0 36 4 65 9 65 5 0
20 -17 33 -37z"/>
<path d="M1417 1244 c-14 -19 -15 -24 -4 -24 8 0 17 10 20 22 8 30 5 30 -16 2z"/>
<path d="M1970 1240 c-9 -16 -8 -20 5 -20 8 0 15 9 15 20 0 11 -2 20 -5 20 -2
0 -9 -9 -15 -20z"/>
<path d="M1115 890 c-4 -6 8 -10 29 -10 20 0 36 5 36 10 0 6 -13 10 -29 10
-17 0 -33 -4 -36 -10z"/>
<path d="M1110 800 c-8 -5 -11 -12 -8 -16 10 -9 58 4 58 16 0 13 -30 13 -50 0z"/>
<path d="M1880 882 c-14 -11 -22 -30 -23 -52 -2 -30 2 -36 21 -38 43 -6 82 51
62 89 -13 24 -31 24 -60 1z"/>
<path d="M2390 890 c-11 -7 -5 -10 23 -10 20 0 37 5 37 10 0 13 -40 13 -60 0z"/>
<path d="M2380 795 c-10 -12 -10 -15 3 -15 23 0 47 11 47 21 0 15 -37 10 -50
-6z"/>
<path d="M2177 623 c-4 -3 -7 -20 -6 -37 0 -17 3 -25 6 -18 2 6 16 12 29 12
27 0 28 3 14 31 -11 19 -31 25 -43 12z"/>
<path d="M2326 533 c-6 -14 -5 -15 5 -6 7 7 10 15 7 18 -3 3 -9 -2 -12 -12z"/>
<path d="M638 593 c6 -2 18 -2 25 0 6 3 1 5 -13 5 -14 0 -19 -2 -12 -5z"/>
<path d="M858 573 c5 -21 7 -23 10 -9 2 10 0 22 -6 28 -6 6 -7 0 -4 -19z"/>
<path d="M895 570 c0 -16 3 -30 7 -30 10 0 20 38 13 50 -12 19 -20 10 -20 -20z"/>
<path d="M806 571 c-3 -5 3 -11 13 -14 14 -3 18 -1 14 9 -6 16 -19 18 -27 5z"/>
<path d="M623 550 c1 -16 9 -26 22 -28 18 -3 18 -3 4 10 -9 7 -19 20 -23 28
-3 8 -4 4 -3 -10z"/>
<path d="M1115 590 c-9 -15 5 -52 18 -47 18 6 20 27 2 27 -11 0 -15 5 -11 15
6 17 0 20 -9 5z"/>
<path d="M1258 583 c5 -10 7 -25 4 -33 -3 -11 -2 -12 8 -4 13 13 5 54 -11 54
-6 0 -6 -7 -1 -17z"/>
<path d="M1302 569 c1 -26 3 -28 15 -16 8 7 11 21 7 30 -10 27 -23 19 -22 -14z"/>
<path d="M1004 569 c-3 -6 -1 -16 5 -22 8 -8 11 -6 11 6 0 22 9 22 26 0 12
-16 13 -16 14 -2 0 25 -43 39 -56 18z"/>
<path d="M1210 560 c0 -13 5 -20 13 -17 6 2 12 10 12 17 0 7 -6 15 -12 18 -8
2 -13 -5 -13 -18z"/>
<path d="M1393 573 c-7 -2 -13 -12 -13 -21 1 -15 2 -15 14 1 17 22 26 22 26 0
0 -14 3 -14 12 -5 10 10 10 15 -2 22 -16 11 -19 11 -37 3z"/>
<path d="M1555 580 c3 -5 8 -10 11 -10 2 0 4 5 4 10 0 6 -5 10 -11 10 -5 0 -7
-4 -4 -10z"/>
<path d="M1942 555 c0 -16 2 -22 5 -12 2 9 2 23 0 30 -3 6 -5 -1 -5 -18z"/>
<path d="M600 330 c0 -13 5 -20 13 -17 6 2 12 10 12 17 0 7 -6 15 -12 18 -8 2
-13 -5 -13 -18z"/>
<path d="M685 340 c-4 -6 -3 -16 3 -22 6 -6 12 -6 17 2 4 6 3 16 -3 22 -6 6
-12 6 -17 -2z"/>
<path d="M1430 331 c0 -14 5 -19 15 -14 17 6 15 25 -3 31 -7 2 -12 -5 -12 -17z"/>
<path d="M1622 338 c-28 -28 5 -91 34 -67 24 20 12 79 -16 79 -3 0 -11 -5 -18
-12z"/>
<path d="M2175 310 c-3 -5 -1 -10 4 -10 6 0 11 5 11 10 0 6 -2 10 -4 10 -3 0
-8 -4 -11 -10z"/>
<path d="M2370 331 c-18 -34 11 -81 37 -59 18 15 16 65 -3 72 -22 8 -22 8 -34
-13z"/>
</g>
</svg>
